<mxfile host="app.diagrams.net" modified="2023-11-26T14:11:39.044Z" agent="Mozilla/5.0 (Windows NT 10.0; Win64; x64) AppleWebKit/537.36 (KHTML, like Gecko) Chrome/118.0.0.0 Safari/537.36 OPR/104.0.0.0" version="22.1.4" etag="5_wjdyFtyFFW1YMTJwKx" type="github">
  <diagram name="Страница — 1" id="Wl7YIcuQLTq2UmNiOqe7">
    <mxGraphModel>
      <root>
        <mxCell id="0" />
        <mxCell id="1" parent="0" />
      </root>
    </mxGraphModel>
  </diagram>
</mxfile>
